<svg width="13" height="13" viewBox="0 0 13 13" fill="none" xmlns="http://www.w3.org/2000/svg">
<path fill-rule="evenodd" clip-rule="evenodd" d="M6.5 12.5C8.0913 12.5 9.61742 11.8679 10.7426 10.7426C11.8679 9.61742 12.5 8.0913 12.5 6.5C12.5 4.9087 11.8679 3.38258 10.7426 2.25736C9.61742 1.13214 8.0913 0.5 6.5 0.5C4.9087 0.5 3.38258 1.13214 2.25736 2.25736C1.13214 3.38258 0.5 4.9087 0.5 6.5C0.5 8.0913 1.13214 9.61742 2.25736 10.7426C3.38258 11.8679 4.9087 12.5 6.5 12.5ZM5.53025 4.46975C5.3888 4.33313 5.19935 4.25754 5.0027 4.25924C4.80605 4.26095 4.61794 4.33983 4.47889 4.47889C4.33983 4.61794 4.26095 4.80605 4.25924 5.0027C4.25754 5.19935 4.33313 5.3888 4.46975 5.53025L5.4395 6.5L4.46975 7.46975C4.39812 7.53894 4.34098 7.62169 4.30167 7.7132C4.26237 7.8047 4.24168 7.90311 4.24081 8.0027C4.23995 8.10228 4.25892 8.20104 4.29663 8.29322C4.33434 8.38539 4.39003 8.46913 4.46045 8.53955C4.53087 8.60997 4.61461 8.66566 4.70678 8.70337C4.79896 8.74108 4.89772 8.76005 4.9973 8.75919C5.09689 8.75832 5.1953 8.73763 5.2868 8.69833C5.37831 8.65902 5.46106 8.60188 5.53025 8.53025L6.5 7.5605L7.46975 8.53025C7.6112 8.66687 7.80065 8.74246 7.9973 8.74076C8.19395 8.73905 8.38206 8.66017 8.52111 8.52111C8.66017 8.38206 8.73905 8.19395 8.74076 7.9973C8.74246 7.80065 8.66687 7.6112 8.53025 7.46975L7.5605 6.5L8.53025 5.53025C8.66687 5.3888 8.74246 5.19935 8.74076 5.0027C8.73905 4.80605 8.66017 4.61794 8.52111 4.47889C8.38206 4.33983 8.19395 4.26095 7.9973 4.25924C7.80065 4.25754 7.6112 4.33313 7.46975 4.46975L6.5 5.4395L5.53025 4.46975Z" fill="url(#paint0_linear_1_529)"/>
<defs>
<linearGradient id="paint0_linear_1_529" x1="0.5" y1="6.5" x2="12.5" y2="6.5" gradientUnits="userSpaceOnUse">
<stop stop-color="#FF531F"/>
<stop offset="1" stop-color="#FE0000"/>
</linearGradient>
</defs>
</svg>
